<?xml version="1.0" encoding="utf-8"?>
<!-- Generator: Adobe Illustrator 26.5.0, SVG Export Plug-In . SVG Version: 6.00 Build 0)  -->
<svg version="1.1" id="Layer_1" xmlns="http://www.w3.org/2000/svg" xmlns:xlink="http://www.w3.org/1999/xlink" x="0px" y="0px"
	 viewBox="0 0 24 24" style="enable-background:new 0 0 24 24;" xml:space="preserve">
<style type="text/css">
	.st0{fill-rule:evenodd;clip-rule:evenodd;fill:#231F20;}
	.st1{fill-rule:evenodd;clip-rule:evenodd;fill:#FFFFFF;filter:url(#Adobe_OpacityMaskFilter);}
	.st2{mask:url(#mask0_1679_107190_00000113327407677940830020000006130072912037081769_);}
</style>
<path class="st0" d="M17,4h2c0.5,0,1,0.5,1,1v14c0,0.5-0.5,1-1,1h-2c-0.5,0-1-0.5-1-1s0.5-1,1-1h1V6h-1c-0.5,0-1-0.4-1-1
	S16.5,4,17,4z M10.4,7.2c0.4-0.3,1.1-0.2,1.4,0.2l3,4c0.3,0.3,0.3,0.8,0,1.2l-2.8,4c-0.2,0.3-0.5,0.4-0.8,0.4
	c-0.2,0-0.4-0.1-0.6-0.2c-0.5-0.3-0.6-0.9-0.2-1.4l1.7-2.4c0,0,0,0,0,0c0,0,0,0,0,0H4c-0.6,0-1-0.4-1-1c0-0.6,0.4-1,1-1h8h0
	l-1.8-2.4C9.9,8.2,10,7.5,10.4,7.2z"/>
<defs>
	<filter id="Adobe_OpacityMaskFilter" filterUnits="userSpaceOnUse">
		<feColorMatrix  type="matrix" values="1 0 0 0 0  0 1 0 0 0  0 0 1 0 0  0 0 0 1 0"/>
	</filter>
</defs>
<mask maskUnits="userSpaceOnUse" id="mask0_1679_107190_00000113327407677940830020000006130072912037081769_">
	<path class="st1" d="M17,4h2c0.5,0,1,0.5,1,1v14c0,0.5-0.5,1-1,1h-2c-0.5,0-1-0.5-1-1s0.5-1,1-1h1V6h-1c-0.5,0-1-0.4-1-1
		S16.5,4,17,4z M10.4,7.2c0.4-0.3,1.1-0.2,1.4,0.2l3,4c0.3,0.3,0.3,0.8,0,1.2l-2.8,4c-0.2,0.3-0.5,0.4-0.8,0.4
		c-0.2,0-0.4-0.1-0.6-0.2c-0.5-0.3-0.6-0.9-0.2-1.4l1.7-2.4c0,0,0,0,0,0c0,0,0,0,0,0H4c-0.6,0-1-0.4-1-1c0-0.6,0.4-1,1-1h8h0
		l-1.8-2.4C9.9,8.2,10,7.5,10.4,7.2z"/>
</mask>
<g class="st2">
</g>
</svg>
