<?xml version="1.0" encoding="utf-8"?>
<!-- Generator: Adobe Illustrator 26.5.0, SVG Export Plug-In . SVG Version: 6.00 Build 0)  -->
<svg version="1.1" id="Layer_1" xmlns="http://www.w3.org/2000/svg" xmlns:xlink="http://www.w3.org/1999/xlink" x="0px" y="0px"
	 viewBox="0 0 24 24" style="enable-background:new 0 0 24 24;" xml:space="preserve">
<style type="text/css">
	.st0{fill-rule:evenodd;clip-rule:evenodd;fill:#231F20;}
</style>
<path class="st0" d="M17.3,15.9l3.4,3.4c0.4,0.4,0.4,1,0,1.4C20.5,20.9,20.3,21,20,21s-0.5-0.1-0.7-0.3l-3.4-3.4
	C14.5,18.4,12.8,19,11,19c-4.4,0-8-3.6-8-8s3.6-8,8-8s8,3.6,8,8C19,12.8,18.4,14.5,17.3,15.9z M11,5c-3.3,0-6,2.7-6,6s2.7,6,6,6
	s6-2.7,6-6S14.3,5,11,5z"/>
</svg>
