<?xml version="1.0" encoding="utf-8"?>
<!-- Generator: Adobe Illustrator 26.5.0, SVG Export Plug-In . SVG Version: 6.00 Build 0)  -->
<svg version="1.1" id="Layer_1" xmlns="http://www.w3.org/2000/svg" xmlns:xlink="http://www.w3.org/1999/xlink" x="0px" y="0px"
	 viewBox="0 0 24 24" style="enable-background:new 0 0 24 24;" xml:space="preserve">
<style type="text/css">
	.st0{fill-rule:evenodd;clip-rule:evenodd;fill:#231F20;}
</style>
<path class="st0" d="M19.4,6c0.7,0,1.3,0.4,1.7,0.9s0.4,1.3,0.1,1.9l-3.3,6.6C17.7,15.8,17.4,16,17,16H8c-0.5,0-0.8-0.3-1-0.7L4.2,5
	H3C2.4,5,2,4.6,2,4s0.4-1,1-1h2c0.5,0,0.8,0.3,1,0.7L6.6,6H19.4z M16.4,14H8.8L7.1,8h12.3L16.4,14z M7.5,21C8.3,21,9,20.3,9,19.5
	S8.3,18,7.5,18S6,18.7,6,19.5S6.7,21,7.5,21z M17.5,21c0.8,0,1.5-0.7,1.5-1.5S18.3,18,17.5,18S16,18.7,16,19.5S16.7,21,17.5,21z"/>
</svg>
